<?xml version="1.0" standalone="no"?>
<!DOCTYPE svg PUBLIC "-//W3C//DTD SVG 20010904//EN"
 "http://www.w3.org/TR/2001/REC-SVG-20010904/DTD/svg10.dtd">
<svg version="1.0" xmlns="http://www.w3.org/2000/svg"
 width="800.000000pt" height="800.000000pt" viewBox="0 0 800.000000 800.000000"
 preserveAspectRatio="xMidYMid meet">

<g transform="translate(0.000000,800.000000) scale(0.100000,-0.100000)"
fill="#000000" stroke="none">
<path d="M0 4000 l0 -4000 4000 0 4000 0 0 4000 0 4000 -4000 0 -4000 0 0
-4000z m4275 2635 c72 -4 171 -16 220 -27 50 -10 127 -27 172 -36 45 -10 85
-21 89 -25 4 -4 17 -7 29 -7 11 0 25 -4 30 -8 6 -5 35 -14 65 -21 30 -7 70
-22 88 -32 18 -10 39 -19 46 -19 7 0 31 -9 54 -20 22 -11 47 -20 55 -20 8 0
25 -8 38 -18 13 -10 53 -33 89 -51 82 -42 98 -57 82 -73 -9 -9 -17 -7 -34 9
-13 11 -44 27 -71 36 -26 9 -59 25 -74 36 -14 12 -35 21 -46 21 -11 0 -35 9
-53 21 -19 11 -66 31 -106 44 -89 29 -140 48 -153 57 -5 3 -36 9 -67 13 -32 4
-58 11 -58 16 0 5 -13 9 -29 9 -16 0 -42 5 -58 11 -15 6 -46 13 -68 15 -22 3
-74 9 -115 15 -245 32 -574 34 -700 5 -36 -9 -83 -16 -106 -16 -22 0 -74 -9
-115 -20 -41 -11 -105 -27 -144 -36 -66 -14 -159 -44 -197 -65 -10 -5 -26 -9
-36 -9 -10 0 -45 -13 -77 -30 -32 -16 -66 -30 -76 -30 -9 0 -22 -7 -29 -15 -7
-8 -20 -15 -30 -15 -10 0 -23 -6 -29 -14 -7 -8 -24 -17 -38 -21 -14 -3 -45
-19 -69 -36 -23 -16 -47 -29 -51 -29 -5 0 -27 -13 -49 -29 -21 -16 -49 -32
-61 -35 -13 -4 -23 -11 -23 -14 0 -4 -17 -16 -37 -27 -20 -11 -53 -35 -73 -52
-19 -18 -38 -33 -42 -33 -4 0 -21 -12 -37 -27 -17 -16 -47 -41 -67 -58 -67
-54 -314 -306 -314 -321 0 -4 -15 -22 -32 -40 -53 -52 -64 -66 -97 -123 -18
-29 -38 -60 -46 -68 -8 -8 -15 -18 -15 -22 0 -4 -10 -20 -23 -34 -12 -15 -49
-79 -80 -142 -32 -63 -62 -115 -67 -115 -4 0 -11 -17 -15 -37 -3 -21 -13 -48
-21 -61 -9 -13 -33 -72 -54 -132 -21 -60 -43 -117 -48 -127 -5 -10 -13 -40
-17 -67 -3 -27 -10 -56 -15 -65 -17 -35 -31 -93 -40 -163 -5 -40 -16 -118 -25
-173 -20 -117 -28 -453 -14 -560 9 -68 16 -114 44 -280 16 -95 78 -324 99
-363 7 -15 19 -47 26 -72 12 -46 15 -53 42 -105 9 -16 26 -55 39 -85 13 -30
27 -57 32 -58 4 -2 7 -11 7 -21 0 -9 11 -33 25 -53 14 -20 25 -42 25 -47 0 -6
5 -11 10 -11 6 0 10 -9 10 -20 0 -11 4 -20 9 -20 5 0 36 -44 69 -98 33 -53 72
-108 86 -121 14 -14 26 -30 26 -38 0 -7 4 -13 9 -13 4 0 20 -17 33 -38 23 -34
149 -174 191 -211 10 -9 30 -29 45 -44 15 -16 47 -43 72 -60 56 -38 90 -76 90
-101 0 -17 -4 -16 -32 8 -18 15 -46 35 -62 44 -16 9 -38 28 -50 41 -12 13 -30
31 -40 40 -44 36 -135 131 -199 206 -37 44 -81 95 -98 112 -16 18 -29 39 -29
47 0 7 -7 16 -15 20 -8 3 -15 12 -15 20 0 8 -4 16 -9 18 -11 4 -81 107 -81
119 0 5 -14 28 -30 51 -35 47 -154 289 -164 331 -3 15 -11 27 -16 27 -6 0 -10
8 -10 18 0 10 -9 37 -20 60 -11 22 -20 46 -20 52 0 6 -12 46 -26 88 -14 42
-29 95 -34 117 -5 22 -18 76 -30 120 -12 44 -24 116 -26 160 -3 44 -9 103 -15
130 -5 28 -11 120 -12 205 -3 140 1 214 17 365 3 28 8 75 11 105 7 61 32 184
45 215 5 11 11 40 15 65 7 54 37 140 47 140 5 0 8 12 8 28 0 34 19 89 43 126
10 15 21 43 24 62 3 18 11 39 19 45 7 6 21 34 30 62 9 29 29 68 44 87 15 19
30 47 34 62 6 26 83 147 112 176 8 7 14 17 14 22 0 15 92 142 133 185 22 22
45 54 52 70 8 17 25 37 39 45 14 7 26 17 26 22 0 18 279 278 298 278 5 0 17
10 28 21 10 12 43 37 72 56 28 18 52 38 52 43 0 6 6 10 13 10 6 0 34 16 61 35
27 19 54 35 59 35 5 0 26 14 47 30 21 17 41 30 46 30 4 0 62 26 128 59 67 32
132 62 146 66 14 4 53 20 88 36 35 16 72 29 83 29 12 0 49 12 85 26 35 14 103
32 151 40 48 8 104 17 123 21 19 3 41 10 47 15 14 11 366 34 483 32 41 -1 134
-5 205 -9z m-631 -876 c48 -22 80 -115 97 -287 13 -126 5 -290 -23 -469 -12
-73 -5 -104 14 -69 6 10 18 26 27 35 9 9 23 28 32 41 9 14 36 39 60 55 24 17
47 34 51 39 4 6 38 10 76 10 61 1 74 -2 96 -23 29 -27 56 -109 56 -170 0 -75
-38 -302 -65 -391 -9 -30 -22 -80 -29 -110 -7 -30 -18 -68 -24 -85 -25 -61
-32 -81 -41 -120 -5 -22 -22 -78 -38 -125 -31 -88 -55 -173 -79 -275 -50 -217
43 -261 189 -89 86 100 99 119 177 244 90 145 111 189 100 209 -17 33 -12 90
13 123 31 43 54 49 110 27 26 -11 63 -19 83 -19 41 0 145 42 191 76 17 13 36
24 41 24 5 0 22 16 36 35 15 19 31 35 37 35 12 0 80 70 170 176 26 31 58 54
75 54 8 0 33 -14 55 -32 35 -28 39 -36 39 -78 0 -31 -5 -52 -16 -61 -9 -7 -30
-39 -47 -72 -48 -89 -59 -108 -95 -160 -17 -26 -32 -52 -32 -57 0 -5 -13 -29
-30 -53 -16 -25 -30 -48 -30 -52 0 -3 -14 -26 -30 -50 -17 -24 -27 -46 -22
-48 4 -3 24 -8 45 -12 52 -10 147 -114 147 -162 0 -23 22 -25 45 -3 14 13 33
28 43 34 11 6 58 37 104 69 46 31 88 57 92 57 4 0 22 11 39 24 30 23 83 54
170 99 38 20 72 17 65 -6 -2 -6 -26 -23 -53 -37 -28 -14 -68 -38 -90 -53 -22
-15 -44 -27 -50 -27 -5 0 -28 -14 -49 -30 -22 -17 -44 -30 -50 -30 -5 0 -21
-11 -35 -24 -15 -14 -38 -31 -52 -38 -26 -14 -65 -42 -116 -83 l-24 -20 15
-130 c9 -71 16 -173 16 -225 -1 -137 -24 -336 -48 -400 -11 -30 -24 -71 -27
-90 -7 -33 -46 -114 -66 -134 -5 -6 -9 -16 -9 -23 0 -14 -80 -123 -129 -177
-43 -47 -127 -105 -178 -122 -61 -22 -147 -21 -198 1 -52 22 -112 86 -125 133
-18 67 -7 260 19 310 5 9 16 37 26 62 23 63 85 187 118 237 15 23 27 45 27 48
0 4 11 21 25 39 15 17 49 60 78 96 28 36 100 115 160 175 121 123 118 115 76
225 -36 92 -47 115 -69 135 -28 26 -25 50 15 106 19 27 35 54 35 60 0 6 13 29
28 52 15 23 34 56 42 72 8 17 17 32 20 35 13 13 31 53 26 58 -3 3 -6 0 -6 -6
0 -7 -4 -12 -10 -12 -9 0 -36 -22 -100 -82 -16 -14 -38 -29 -49 -33 -12 -3
-21 -10 -21 -15 0 -5 -43 -30 -95 -55 l-95 -46 -92 4 c-51 2 -105 8 -120 12
-25 7 -29 3 -48 -38 -12 -25 -28 -51 -36 -58 -8 -6 -14 -15 -14 -20 0 -5 -16
-32 -35 -59 -19 -27 -35 -53 -35 -57 0 -5 -14 -24 -30 -43 -16 -19 -30 -41
-30 -47 0 -7 -4 -13 -9 -13 -4 0 -20 -17 -33 -37 -38 -57 -117 -132 -162 -154
-79 -38 -194 -18 -238 42 -43 57 -31 268 24 454 17 55 33 116 37 135 7 31 20
75 78 250 8 25 22 70 30 100 8 30 23 84 33 120 45 149 50 178 50 261 0 95 -10
114 -52 104 -14 -4 -36 -17 -49 -31 -13 -13 -39 -38 -56 -56 -18 -17 -33 -36
-33 -41 0 -5 -16 -31 -35 -57 -19 -26 -35 -54 -35 -61 0 -7 -8 -31 -18 -53
-27 -60 -42 -109 -42 -139 0 -27 -17 -106 -30 -142 -4 -11 -13 -40 -19 -65
-30 -113 -64 -210 -81 -228 -23 -24 -53 -20 -88 12 -45 40 -54 71 -42 134 7
31 15 66 20 77 23 60 41 127 49 180 5 33 17 89 26 125 8 36 20 99 26 140 5 41
16 116 24 165 28 174 35 247 35 389 0 178 -20 246 -73 246 -21 0 -97 -56 -97
-72 0 -6 -16 -33 -35 -59 -19 -27 -35 -52 -35 -55 0 -4 -13 -29 -30 -56 -16
-26 -30 -54 -30 -61 0 -6 -13 -37 -30 -67 -16 -30 -29 -64 -30 -76 0 -11 -4
-24 -8 -30 -13 -14 -54 -121 -62 -162 -4 -20 -15 -64 -25 -97 -17 -60 -30
-127 -60 -325 -9 -58 -18 -112 -20 -121 -3 -8 -9 -60 -15 -115 -5 -55 -22
-169 -39 -254 -16 -85 -34 -180 -39 -210 -23 -130 -59 -225 -90 -238 -9 -4
-38 -20 -64 -35 -98 -59 -115 -7 -57 175 16 51 29 105 29 120 0 14 9 66 19
115 35 162 41 197 56 338 8 77 23 205 34 285 10 80 22 208 26 285 3 77 10 167
15 200 5 33 14 164 20 290 13 247 20 275 65 275 13 0 27 -4 30 -10 3 -5 14
-10 23 -10 9 0 35 -17 56 -37 l39 -36 -6 -172 c-4 -95 -11 -205 -18 -245 -7
-48 -8 -75 -1 -82 7 -7 12 1 17 24 16 81 187 427 241 488 7 8 29 33 49 55 19
21 35 42 35 46 0 4 19 16 43 27 47 24 104 28 141 11z m2881 -572 c19 -12 34
-28 35 -36 0 -11 -4 -11 -18 2 -13 12 -36 17 -73 17 -56 -1 -89 -16 -89 -43 0
-9 -4 -19 -10 -22 -5 -3 -10 -42 -10 -85 0 -112 -18 -152 -81 -184 -41 -20
-56 -23 -82 -15 -43 12 -106 77 -106 109 0 24 1 24 9 3 20 -48 52 -73 94 -73
73 1 106 50 106 157 0 84 18 138 56 168 52 40 107 41 169 2z m72 -184 c-2 -21
-4 -6 -4 32 0 39 2 55 4 38 2 -18 2 -50 0 -70z m-517 -10 c-1 -31 -3 -35 -11
-20 -6 9 -7 26 -4 37 10 30 15 24 15 -17z m495 -319 c22 -4 57 -21 78 -38 44
-35 98 -136 96 -181 -2 -29 -2 -29 -12 8 -6 20 -14 37 -19 37 -4 0 -8 6 -8 14
0 27 -51 74 -97 90 -76 26 -139 22 -246 -17 -26 -9 -58 -45 -84 -96 -7 -13
-13 -52 -13 -87 0 -36 -4 -64 -10 -64 -16 0 -13 186 4 219 19 36 89 99 118
106 59 13 124 22 138 19 8 -1 33 -6 55 -10z m198 -361 c10 -50 -9 -57 -253
-88 -63 -9 -128 -20 -144 -25 -53 -18 -85 -13 -96 16 -13 33 -13 81 0 89 6 4
10 -7 10 -26 0 -35 -7 -35 130 -9 30 6 89 15 130 20 122 15 195 30 198 40 7
19 20 10 25 -17z m17 -360 c0 -26 -31 -53 -61 -53 -15 0 -31 -4 -34 -10 -3 -5
-17 -10 -30 -10 -13 0 -27 -4 -30 -10 -3 -5 -14 -10 -24 -10 -10 0 -24 -7 -31
-15 -7 -9 -21 -13 -31 -10 -11 4 -36 1 -56 -6 -67 -21 -123 -44 -123 -49 0
-10 16 -25 39 -38 13 -8 40 -23 60 -34 20 -11 42 -25 49 -31 21 -17 31 4 35
78 3 69 3 69 5 -17 1 -53 6 -88 12 -88 10 0 21 -8 54 -37 8 -7 26 -15 41 -19
14 -4 29 -13 32 -20 3 -8 11 -14 19 -14 8 0 14 -4 14 -10 0 -13 -17 -13 -25
-1 -3 5 -31 22 -63 38 -31 15 -66 36 -76 46 -11 9 -28 17 -38 17 -10 0 -18 5
-18 10 0 6 -7 10 -15 10 -8 0 -15 3 -15 8 0 4 -17 15 -39 24 -21 9 -45 23 -53
31 -8 8 -38 27 -67 41 -55 28 -61 46 -20 58 13 4 71 21 129 38 58 17 121 36
140 41 19 6 44 14 55 18 109 43 165 52 165 24z m-600 -588 c0 -14 -4 -25 -10
-25 -11 0 -14 33 -3 43 11 11 13 8 13 -18z m-29 -72 c-9 -16 -10 -14 -11 12 0
21 3 26 11 18 8 -8 8 -16 0 -30z m246 5 c-3 -7 -5 -2 -5 12 0 14 2 19 5 13 2
-7 2 -19 0 -25z m-225 -72 c17 -9 39 -16 49 -16 9 0 38 -9 64 -20 48 -21 65
-19 65 6 0 8 5 14 10 14 6 0 10 -13 10 -30 0 -26 5 -30 43 -40 23 -6 67 -22
98 -35 42 -17 60 -20 68 -12 16 16 14 -33 -3 -56 -13 -16 -17 -16 -84 13 -39
16 -77 30 -84 30 -8 0 -45 13 -83 30 -39 16 -79 30 -90 30 -11 0 -33 7 -49 15
-15 8 -34 15 -41 15 -19 0 -48 37 -36 45 6 3 11 18 11 33 1 23 2 24 10 10 6
-9 24 -24 42 -32z m205 12 c-3 -7 -5 -2 -5 12 0 14 2 19 5 13 2 -7 2 -19 0
-25z m270 0 c-3 -8 -6 -5 -6 6 -1 11 2 17 5 13 3 -3 4 -12 1 -19z m-20 -55
c-3 -10 -5 -4 -5 12 0 17 2 24 5 18 2 -7 2 -21 0 -30z m-14 -53 c-3 -11 -7
-20 -9 -20 -2 0 -4 9 -4 20 0 11 4 20 9 20 5 0 7 -9 4 -20z m-564 -344 c19
-14 43 -26 52 -26 10 0 19 -3 21 -7 4 -9 65 -53 73 -53 3 0 36 -18 72 -40 52
-31 70 -37 84 -29 11 5 19 17 19 26 0 9 3 13 7 10 3 -4 -4 -27 -16 -52 -27
-55 -47 -57 -114 -15 -26 17 -50 30 -53 30 -3 0 -26 15 -52 32 -26 18 -60 40
-77 49 -148 79 -171 99 -156 128 l12 21 47 -24 c26 -14 62 -36 81 -50z m384
-48 c-3 -16 -9 -28 -14 -28 -12 0 -11 4 3 35 14 31 18 29 11 -7z m-834 -385
c1 -18 -3 -33 -9 -33 -6 0 -10 25 -9 58 1 43 3 51 9 32 4 -14 8 -40 9 -57z m8
-135 c-2 -13 -4 -5 -4 17 -1 22 1 32 4 23 2 -10 2 -28 0 -40z m-191 -3 c30
-14 59 -25 65 -25 5 0 29 -9 51 -20 23 -11 52 -20 64 -20 21 0 74 -57 74 -79
0 -6 4 -11 8 -11 5 0 27 -25 50 -56 39 -53 41 -58 25 -70 -10 -7 -21 -14 -25
-14 -4 0 -38 36 -75 81 -51 61 -80 86 -120 105 -30 13 -60 24 -69 24 -8 0 -41
14 -74 30 -33 17 -66 30 -75 30 -19 0 -19 14 1 34 21 22 36 20 100 -9z m-316
-139 c0 -2 -16 -6 -35 -8 -19 -2 -35 0 -35 4 0 4 16 8 35 8 19 0 35 -2 35 -4z
m-111 -37 c-20 -17 -23 -29 -23 -76 2 -82 18 -93 144 -93 107 0 144 -9 176
-44 52 -55 58 -113 17 -175 -14 -22 -29 -39 -32 -36 -2 3 1 11 7 17 7 7 12 35
12 64 0 47 -3 55 -35 83 -35 31 -36 31 -150 31 -105 0 -117 2 -133 21 -9 12
-23 27 -30 35 -16 17 -26 75 -19 106 7 27 61 88 78 88 7 0 1 -9 -12 -21z
m-443 -167 c10 -7 88 -115 110 -154 6 -10 21 -30 34 -43 13 -13 28 -33 34 -43
23 -40 95 -138 110 -151 24 -20 19 -38 -11 -46 -22 -5 -31 -2 -43 16 -8 13
-25 33 -37 46 -13 12 -23 28 -23 35 -1 7 -19 31 -40 53 -22 22 -40 44 -40 50
0 6 -9 20 -19 32 -10 11 -26 33 -34 49 -8 16 -26 39 -40 52 l-25 24 -7 -41
c-4 -23 -11 -43 -16 -47 -5 -3 -9 -22 -9 -43 0 -20 -5 -42 -12 -49 -9 -9 -4
-15 23 -26 l34 -14 -30 -4 c-31 -3 -37 -16 -52 -121 -3 -20 -9 -40 -14 -43 -5
-3 -9 -14 -9 -25 0 -10 -5 -19 -11 -19 -7 0 -9 8 -4 23 4 12 10 43 15 69 5 26
13 55 18 65 5 10 13 50 17 88 4 39 13 90 20 115 7 25 19 71 26 103 12 58 16
62 35 49z m-397 -48 c2 -2 -39 -4 -92 -4 l-97 0 0 -95 c0 -52 -1 -98 -2 -102
-2 -5 32 -9 75 -11 42 -2 77 -7 77 -12 0 -5 -35 -10 -77 -12 l-78 -3 0 -110 0
-110 30 -5 c30 -6 29 -6 -10 -13 -22 -4 -50 -7 -62 -7 l-23 0 0 249 0 250 128
-6 c70 -3 129 -7 131 -9z m456 -224 c-3 -5 -19 -10 -36 -10 -16 0 -29 5 -29
10 0 6 16 10 36 10 21 0 33 -4 29 -10z m650 0 c-3 -5 -11 -10 -16 -10 -6 0 -7
5 -4 10 3 6 11 10 16 10 6 0 7 -4 4 -10z m-32 -27 c-7 -2 -21 -2 -30 0 -10 3
-4 5 12 5 17 0 24 -2 18 -5z"/>
<path d="M4812 3553 c-50 -54 -110 -123 -133 -153 -23 -30 -47 -62 -55 -70
-19 -20 -77 -107 -96 -145 -8 -16 -22 -43 -31 -60 -112 -203 -136 -406 -54
-456 72 -43 186 -4 285 98 34 36 62 71 62 78 0 7 7 18 16 26 34 28 101 214
115 319 17 127 22 314 9 388 -6 40 -15 72 -19 72 -3 0 -48 -44 -99 -97z"/>
</g>
</svg>
